<?xml version="1.0" encoding="UTF-8" standalone="no"?>
<!DOCTYPE svg PUBLIC "-//W3C//DTD SVG 1.1//EN"
 "http://www.w3.org/Graphics/SVG/1.1/DTD/svg11.dtd">
<!-- Generated by graphviz version 2.40.1 (20161225.0304)
 -->
<!-- Title: dependencies Pages: 1 -->
<svg width="506pt" height="211pt"
 viewBox="0.00 0.00 506.00 211.00" xmlns="http://www.w3.org/2000/svg" xmlns:xlink="http://www.w3.org/1999/xlink">
<g id="graph0" class="graph" transform="scale(1 1) rotate(0) translate(4 207)">
<title>dependencies</title>
<polygon fill="#ffffff" stroke="transparent" points="-4,4 -4,-207 502,-207 502,4 -4,4"/>
<text text-anchor="start" x="228.0091" y="-42.4" font-family="sans-serif" font-weight="bold" font-size="14.00" fill="#000000">Legend</text>
<polygon fill="#ffffb3" stroke="transparent" points="15,-10 15,-30 35,-30 35,-10 15,-10"/>
<text text-anchor="start" x="38.629" y="-15.4" font-family="sans-serif" font-size="14.00" fill="#000000"> &#160;Declarations</text>
<polygon fill="#8dd3c7" stroke="transparent" points="128,-10 128,-30 148,-30 148,-10 128,-10"/>
<text text-anchor="start" x="151.7251" y="-15.4" font-family="sans-serif" font-size="14.00" fill="#000000"> &#160;Module</text>
<polygon fill="#80b1d3" stroke="transparent" points="214,-10 214,-30 234,-30 234,-10 214,-10"/>
<text text-anchor="start" x="237.7812" y="-15.4" font-family="sans-serif" font-size="14.00" fill="#000000"> &#160;Bootstrap</text>
<polygon fill="#fdb462" stroke="transparent" points="311,-10 311,-30 331,-30 331,-10 311,-10"/>
<text text-anchor="start" x="334.6732" y="-15.4" font-family="sans-serif" font-size="14.00" fill="#000000"> &#160;Providers</text>
<polygon fill="#fb8072" stroke="transparent" points="407,-10 407,-30 427,-30 427,-10 407,-10"/>
<text text-anchor="start" x="430.7258" y="-15.4" font-family="sans-serif" font-size="14.00" fill="#000000"> &#160;Exports</text>
<g id="clust1" class="cluster">
<title>cluster_AppModule</title>
<polygon fill="none" stroke="#000000" stroke-dasharray="1,5" points="8,-70 8,-195 490,-195 490,-70 8,-70"/>
</g>
<g id="clust3" class="cluster">
<title>cluster_AppModule_imports</title>
<polygon fill="none" stroke="#000000" points="16,-78 16,-130 482,-130 482,-78 16,-78"/>
</g>
<!-- CacheModule -->
<g id="node1" class="node">
<title>CacheModule</title>
<polygon fill="#8dd3c7" stroke="#000000" points="474.0314,-122 471.0314,-126 450.0314,-126 447.0314,-122 379.9686,-122 379.9686,-86 474.0314,-86 474.0314,-122"/>
<text text-anchor="middle" x="427" y="-99.8" font-family="Times,serif" font-size="14.00" fill="#000000">CacheModule</text>
</g>
<!-- AppModule -->
<g id="node5" class="node">
<title>AppModule</title>
<polygon fill="#8dd3c7" stroke="#000000" points="287.6571,-187 284.6571,-191 263.6571,-191 260.6571,-187 204.3429,-187 204.3429,-151 287.6571,-151 287.6571,-187"/>
<text text-anchor="middle" x="246" y="-164.8" font-family="Times,serif" font-size="14.00" fill="#000000">AppModule</text>
</g>
<!-- CacheModule&#45;&gt;AppModule -->
<g id="edge1" class="edge">
<title>CacheModule&#45;&gt;AppModule</title>
<path fill="none" stroke="#000000" d="M427,-122.1061C427,-141.3391 427,-169 427,-169 427,-169 297.98,-169 297.98,-169"/>
<polygon fill="#000000" stroke="#000000" points="297.98,-165.5001 287.98,-169 297.9799,-172.5001 297.98,-165.5001"/>
</g>
<!-- GraphqlModule -->
<g id="node2" class="node">
<title>GraphqlModule</title>
<polygon fill="#8dd3c7" stroke="#000000" points="361.923,-122 358.923,-126 337.923,-126 334.923,-122 256.077,-122 256.077,-86 361.923,-86 361.923,-122"/>
<text text-anchor="middle" x="309" y="-99.8" font-family="Times,serif" font-size="14.00" fill="#000000">GraphqlModule</text>
</g>
<!-- GraphqlModule&#45;&gt;AppModule -->
<g id="edge2" class="edge">
<title>GraphqlModule&#45;&gt;AppModule</title>
<path fill="none" stroke="#000000" d="M272.0585,-122.1061C272.0585,-122.1061 272.0585,-140.991 272.0585,-140.991"/>
<polygon fill="#000000" stroke="#000000" points="268.5586,-140.9909 272.0585,-150.991 275.5586,-140.991 268.5586,-140.9909"/>
</g>
<!-- TypeormModule -->
<g id="node3" class="node">
<title>TypeormModule</title>
<polygon fill="#8dd3c7" stroke="#000000" points="238.3683,-122 235.3683,-126 214.3683,-126 211.3683,-122 127.6317,-122 127.6317,-86 238.3683,-86 238.3683,-122"/>
<text text-anchor="middle" x="183" y="-99.8" font-family="Times,serif" font-size="14.00" fill="#000000">TypeormModule</text>
</g>
<!-- TypeormModule&#45;&gt;AppModule -->
<g id="edge3" class="edge">
<title>TypeormModule&#45;&gt;AppModule</title>
<path fill="none" stroke="#000000" d="M221.303,-122.1061C221.303,-122.1061 221.303,-140.991 221.303,-140.991"/>
<polygon fill="#000000" stroke="#000000" points="217.803,-140.9909 221.303,-150.991 224.803,-140.991 217.803,-140.9909"/>
</g>
<!-- UserModule -->
<g id="node4" class="node">
<title>UserModule</title>
<polygon fill="#8dd3c7" stroke="#000000" points="109.9762,-122 106.9762,-126 85.9762,-126 82.9762,-122 24.0238,-122 24.0238,-86 109.9762,-86 109.9762,-122"/>
<text text-anchor="middle" x="67" y="-99.8" font-family="Times,serif" font-size="14.00" fill="#000000">UserModule</text>
</g>
<!-- UserModule&#45;&gt;AppModule -->
<g id="edge4" class="edge">
<title>UserModule&#45;&gt;AppModule</title>
<path fill="none" stroke="#000000" d="M67,-122.1061C67,-141.3391 67,-169 67,-169 67,-169 194.0325,-169 194.0325,-169"/>
<polygon fill="#000000" stroke="#000000" points="194.0325,-172.5001 204.0325,-169 194.0324,-165.5001 194.0325,-172.5001"/>
</g>
</g>
</svg>
